<mxfile host="app.diagrams.net" modified="2022-03-17T15:47:29.673Z" agent="5.0 (Windows NT 10.0; Win64; x64) AppleWebKit/537.36 (KHTML, like Gecko) Chrome/99.0.4844.51 Safari/537.36" etag="oCb7uUs4m-rBdmRSlpza" version="17.1.3" type="github">
  <diagram id="h91P4YvPm0tBU0iEyPwD" name="Page-1">
    <mxGraphModel dx="868" dy="492" grid="1" gridSize="10" guides="1" tooltips="1" connect="1" arrows="1" fold="1" page="1" pageScale="1" pageWidth="850" pageHeight="1100" math="0" shadow="0">
      <root>
        <mxCell id="0" />
        <mxCell id="1" parent="0" />
        <mxCell id="EQFVSpQimWcvrN9DautT-1" value="User" style="swimlane;childLayout=stackLayout;horizontal=1;startSize=30;horizontalStack=0;rounded=1;fontSize=14;fontStyle=0;strokeWidth=2;resizeParent=0;resizeLast=1;shadow=0;dashed=0;align=center;fillColor=#dae8fc;strokeColor=#6c8ebf;" parent="1" vertex="1">
          <mxGeometry x="920" y="380" width="170" height="190" as="geometry" />
        </mxCell>
        <mxCell id="EQFVSpQimWcvrN9DautT-2" value="-*id_user&#xa;-nama&#xa;-alamat&#xa;-tempat lahir&#xa;-tanggal lahir&#xa;-no hp&#xa;-email&#xa;-password" style="align=left;strokeColor=none;fillColor=none;spacingLeft=4;fontSize=12;verticalAlign=top;resizable=0;rotatable=0;part=1;" parent="EQFVSpQimWcvrN9DautT-1" vertex="1">
          <mxGeometry y="30" width="170" height="160" as="geometry" />
        </mxCell>
        <mxCell id="EQFVSpQimWcvrN9DautT-4" value="Admin" style="swimlane;childLayout=stackLayout;horizontal=1;startSize=30;horizontalStack=0;rounded=1;fontSize=14;fontStyle=0;strokeWidth=2;resizeParent=0;resizeLast=1;shadow=0;dashed=0;align=center;fillColor=#dae8fc;strokeColor=#6c8ebf;" parent="1" vertex="1">
          <mxGeometry x="1130" y="610" width="170" height="100" as="geometry" />
        </mxCell>
        <mxCell id="EQFVSpQimWcvrN9DautT-5" value="-*id admin&#xa;-username&#xa;-password" style="align=left;strokeColor=none;fillColor=none;spacingLeft=4;fontSize=12;verticalAlign=top;resizable=0;rotatable=0;part=1;" parent="EQFVSpQimWcvrN9DautT-4" vertex="1">
          <mxGeometry y="30" width="170" height="70" as="geometry" />
        </mxCell>
        <mxCell id="EQFVSpQimWcvrN9DautT-10" value="Menu" style="swimlane;childLayout=stackLayout;horizontal=1;startSize=30;horizontalStack=0;rounded=1;fontSize=14;fontStyle=0;strokeWidth=2;resizeParent=0;resizeLast=1;shadow=0;dashed=0;align=center;fillColor=#dae8fc;strokeColor=#6c8ebf;" parent="1" vertex="1">
          <mxGeometry x="520" y="380" width="170" height="120" as="geometry" />
        </mxCell>
        <mxCell id="EQFVSpQimWcvrN9DautT-11" value="-*id menu&#xa;-nama menu&#xa;-harga menu" style="align=left;strokeColor=none;fillColor=none;spacingLeft=4;fontSize=12;verticalAlign=top;resizable=0;rotatable=0;part=1;" parent="EQFVSpQimWcvrN9DautT-10" vertex="1">
          <mxGeometry y="30" width="170" height="90" as="geometry" />
        </mxCell>
        <mxCell id="EQFVSpQimWcvrN9DautT-12" value="Kategori" style="swimlane;childLayout=stackLayout;horizontal=1;startSize=30;horizontalStack=0;rounded=1;fontSize=14;fontStyle=0;strokeWidth=2;resizeParent=0;resizeLast=1;shadow=0;dashed=0;align=center;fillColor=#dae8fc;strokeColor=#6c8ebf;" parent="1" vertex="1">
          <mxGeometry x="220" y="180" width="170" height="120" as="geometry" />
        </mxCell>
        <mxCell id="EQFVSpQimWcvrN9DautT-13" value="-*id kategori&#xa;-id menu" style="align=left;strokeColor=none;fillColor=none;spacingLeft=4;fontSize=12;verticalAlign=top;resizable=0;rotatable=0;part=1;" parent="EQFVSpQimWcvrN9DautT-12" vertex="1">
          <mxGeometry y="30" width="170" height="90" as="geometry" />
        </mxCell>
        <mxCell id="EQFVSpQimWcvrN9DautT-14" value="Favorit menu" style="swimlane;childLayout=stackLayout;horizontal=1;startSize=30;horizontalStack=0;rounded=1;fontSize=14;fontStyle=0;strokeWidth=2;resizeParent=0;resizeLast=1;shadow=0;dashed=0;align=center;fillColor=#dae8fc;strokeColor=#6c8ebf;" parent="1" vertex="1">
          <mxGeometry x="520" y="180" width="170" height="120" as="geometry" />
        </mxCell>
        <mxCell id="EQFVSpQimWcvrN9DautT-15" value="-*id favorit&#xa;-id user&#xa;-id menu" style="align=left;strokeColor=none;fillColor=none;spacingLeft=4;fontSize=12;verticalAlign=top;resizable=0;rotatable=0;part=1;" parent="EQFVSpQimWcvrN9DautT-14" vertex="1">
          <mxGeometry y="30" width="170" height="90" as="geometry" />
        </mxCell>
        <mxCell id="EQFVSpQimWcvrN9DautT-16" value="Keranjang" style="swimlane;childLayout=stackLayout;horizontal=1;startSize=30;horizontalStack=0;rounded=1;fontSize=14;fontStyle=0;strokeWidth=2;resizeParent=0;resizeLast=1;shadow=0;dashed=0;align=center;fillColor=#dae8fc;strokeColor=#6c8ebf;" parent="1" vertex="1">
          <mxGeometry x="520" y="600" width="170" height="120" as="geometry" />
        </mxCell>
        <mxCell id="EQFVSpQimWcvrN9DautT-17" value="-*id keranjang&#xa;-id menu&#xa;-id user&#xa;-jumlah pesanan" style="align=left;strokeColor=none;fillColor=none;spacingLeft=4;fontSize=12;verticalAlign=top;resizable=0;rotatable=0;part=1;" parent="EQFVSpQimWcvrN9DautT-16" vertex="1">
          <mxGeometry y="30" width="170" height="90" as="geometry" />
        </mxCell>
        <mxCell id="EQFVSpQimWcvrN9DautT-18" value="Checkout" style="swimlane;childLayout=stackLayout;horizontal=1;startSize=30;horizontalStack=0;rounded=1;fontSize=14;fontStyle=0;strokeWidth=2;resizeParent=0;resizeLast=1;shadow=0;dashed=0;align=center;fillColor=#dae8fc;strokeColor=#6c8ebf;" parent="1" vertex="1">
          <mxGeometry x="290" y="810" width="170" height="120" as="geometry" />
        </mxCell>
        <mxCell id="EQFVSpQimWcvrN9DautT-19" value="-*id bayar&#xa;-id keranjang&#xa;-id user&#xa;-tanggal" style="align=left;strokeColor=none;fillColor=none;spacingLeft=4;fontSize=12;verticalAlign=top;resizable=0;rotatable=0;part=1;" parent="EQFVSpQimWcvrN9DautT-18" vertex="1">
          <mxGeometry y="30" width="170" height="90" as="geometry" />
        </mxCell>
        <mxCell id="EQFVSpQimWcvrN9DautT-20" value="Konfirmasi Order" style="swimlane;childLayout=stackLayout;horizontal=1;startSize=30;horizontalStack=0;rounded=1;fontSize=14;fontStyle=0;strokeWidth=2;resizeParent=0;resizeLast=1;shadow=0;dashed=0;align=center;fillColor=#dae8fc;strokeColor=#6c8ebf;" parent="1" vertex="1">
          <mxGeometry x="820" y="810" width="170" height="120" as="geometry" />
        </mxCell>
        <mxCell id="EQFVSpQimWcvrN9DautT-21" value="-*id status&#xa;-id bayar&#xa;-id user&#xa;-status order&#xa;-tanggal" style="align=left;strokeColor=none;fillColor=none;spacingLeft=4;fontSize=12;verticalAlign=top;resizable=0;rotatable=0;part=1;" parent="EQFVSpQimWcvrN9DautT-20" vertex="1">
          <mxGeometry y="30" width="170" height="90" as="geometry" />
        </mxCell>
        <mxCell id="EQFVSpQimWcvrN9DautT-22" value="" style="edgeStyle=entityRelationEdgeStyle;fontSize=12;html=1;endArrow=ERzeroToMany;startArrow=ERmandOne;rounded=0;entryX=0.995;entryY=0.403;entryDx=0;entryDy=0;entryPerimeter=0;" parent="1" source="EQFVSpQimWcvrN9DautT-1" target="EQFVSpQimWcvrN9DautT-15" edge="1">
          <mxGeometry width="100" height="100" relative="1" as="geometry">
            <mxPoint x="500" y="430" as="sourcePoint" />
            <mxPoint x="600" y="330" as="targetPoint" />
          </mxGeometry>
        </mxCell>
        <mxCell id="EQFVSpQimWcvrN9DautT-23" value="" style="edgeStyle=entityRelationEdgeStyle;fontSize=12;html=1;endArrow=ERzeroToMany;startArrow=ERmandOne;rounded=0;entryX=-0.013;entryY=0.413;entryDx=0;entryDy=0;entryPerimeter=0;exitX=1.001;exitY=0.403;exitDx=0;exitDy=0;exitPerimeter=0;" parent="1" source="EQFVSpQimWcvrN9DautT-13" target="EQFVSpQimWcvrN9DautT-15" edge="1">
          <mxGeometry width="100" height="100" relative="1" as="geometry">
            <mxPoint x="590" y="420" as="sourcePoint" />
            <mxPoint x="690" y="320" as="targetPoint" />
          </mxGeometry>
        </mxCell>
        <mxCell id="EQFVSpQimWcvrN9DautT-27" value="" style="edgeStyle=entityRelationEdgeStyle;fontSize=12;html=1;endArrow=ERoneToMany;startArrow=ERzeroToMany;rounded=0;exitX=-0.002;exitY=0.392;exitDx=0;exitDy=0;exitPerimeter=0;entryX=0.996;entryY=0.642;entryDx=0;entryDy=0;entryPerimeter=0;" parent="1" source="EQFVSpQimWcvrN9DautT-11" target="EQFVSpQimWcvrN9DautT-13" edge="1">
          <mxGeometry width="100" height="100" relative="1" as="geometry">
            <mxPoint x="590" y="330" as="sourcePoint" />
            <mxPoint x="690" y="230" as="targetPoint" />
          </mxGeometry>
        </mxCell>
        <mxCell id="EQFVSpQimWcvrN9DautT-32" value="" style="edgeStyle=entityRelationEdgeStyle;fontSize=12;html=1;endArrow=ERzeroToMany;startArrow=ERzeroToOne;rounded=0;exitX=1;exitY=0.25;exitDx=0;exitDy=0;entryX=1;entryY=0.75;entryDx=0;entryDy=0;" parent="1" source="EQFVSpQimWcvrN9DautT-17" target="EQFVSpQimWcvrN9DautT-10" edge="1">
          <mxGeometry width="100" height="100" relative="1" as="geometry">
            <mxPoint x="710" y="570" as="sourcePoint" />
            <mxPoint x="810" y="470" as="targetPoint" />
          </mxGeometry>
        </mxCell>
        <mxCell id="EQFVSpQimWcvrN9DautT-35" value="" style="edgeStyle=entityRelationEdgeStyle;fontSize=12;html=1;endArrow=ERoneToMany;startArrow=ERoneToMany;rounded=0;exitX=1;exitY=0.5;exitDx=0;exitDy=0;entryX=0;entryY=0.5;entryDx=0;entryDy=0;" parent="1" source="EQFVSpQimWcvrN9DautT-19" target="EQFVSpQimWcvrN9DautT-21" edge="1">
          <mxGeometry width="100" height="100" relative="1" as="geometry">
            <mxPoint x="630" y="850" as="sourcePoint" />
            <mxPoint x="730" y="750" as="targetPoint" />
          </mxGeometry>
        </mxCell>
        <mxCell id="EQFVSpQimWcvrN9DautT-36" value="" style="edgeStyle=entityRelationEdgeStyle;fontSize=12;html=1;endArrow=ERzeroToMany;startArrow=ERmandOne;rounded=0;entryX=1;entryY=0.5;entryDx=0;entryDy=0;exitX=-0.011;exitY=0.541;exitDx=0;exitDy=0;exitPerimeter=0;" parent="1" source="EQFVSpQimWcvrN9DautT-2" target="EQFVSpQimWcvrN9DautT-17" edge="1">
          <mxGeometry width="100" height="100" relative="1" as="geometry">
            <mxPoint x="930" y="485" as="sourcePoint" />
            <mxPoint x="699.1500000000001" y="256.27" as="targetPoint" />
          </mxGeometry>
        </mxCell>
        <mxCell id="4FPXab7qqBhVtDxyQVf2-1" value="" style="edgeStyle=entityRelationEdgeStyle;fontSize=12;html=1;endArrow=ERmandOne;startArrow=ERmandOne;rounded=0;exitX=1;exitY=0.25;exitDx=0;exitDy=0;entryX=1;entryY=0.667;entryDx=0;entryDy=0;entryPerimeter=0;" edge="1" parent="1" source="EQFVSpQimWcvrN9DautT-11" target="EQFVSpQimWcvrN9DautT-15">
          <mxGeometry width="100" height="100" relative="1" as="geometry">
            <mxPoint x="390" y="310" as="sourcePoint" />
            <mxPoint x="490" y="210" as="targetPoint" />
          </mxGeometry>
        </mxCell>
        <mxCell id="4FPXab7qqBhVtDxyQVf2-2" value="" style="edgeStyle=entityRelationEdgeStyle;fontSize=12;html=1;endArrow=ERmandOne;startArrow=ERmandOne;rounded=0;entryX=0;entryY=0.5;entryDx=0;entryDy=0;exitX=1;exitY=0.25;exitDx=0;exitDy=0;" edge="1" parent="1" source="EQFVSpQimWcvrN9DautT-19" target="EQFVSpQimWcvrN9DautT-17">
          <mxGeometry width="100" height="100" relative="1" as="geometry">
            <mxPoint x="520" y="810" as="sourcePoint" />
            <mxPoint x="620" y="710" as="targetPoint" />
          </mxGeometry>
        </mxCell>
        <mxCell id="4FPXab7qqBhVtDxyQVf2-6" value="" style="edgeStyle=entityRelationEdgeStyle;fontSize=12;html=1;endArrow=ERoneToMany;startArrow=ERzeroToMany;rounded=0;entryX=0;entryY=0.5;entryDx=0;entryDy=0;exitX=1;exitY=0.4;exitDx=0;exitDy=0;exitPerimeter=0;" edge="1" parent="1" source="EQFVSpQimWcvrN9DautT-21" target="EQFVSpQimWcvrN9DautT-5">
          <mxGeometry width="100" height="100" relative="1" as="geometry">
            <mxPoint x="840" y="910" as="sourcePoint" />
            <mxPoint x="940" y="810" as="targetPoint" />
          </mxGeometry>
        </mxCell>
      </root>
    </mxGraphModel>
  </diagram>
</mxfile>
